<?xml version="1.0" encoding="UTF-8" standalone="no"?>
<!DOCTYPE svg PUBLIC "-//W3C//DTD SVG 1.1//EN"
 "http://www.w3.org/Graphics/SVG/1.1/DTD/svg11.dtd">
<!-- Generated by graphviz version 2.47.0 (20210316.0004)
 -->
<!-- Title: dependencies Pages: 1 -->
<svg width="3032pt" height="284pt"
 viewBox="0.00 0.00 3032.00 284.00" xmlns="http://www.w3.org/2000/svg" xmlns:xlink="http://www.w3.org/1999/xlink">
<g id="graph0" class="graph" transform="scale(1 1) rotate(0) translate(4 280)">
<title>dependencies</title>
<polygon fill="white" stroke="transparent" points="-4,4 -4,-280 3028,-280 3028,4 -4,4"/>
<text text-anchor="start" x="1491.01" y="-42.4" font-family="Times-12" font-weight="bold" font-size="14.00">Legend</text>
<polygon fill="#ffffb3" stroke="transparent" points="1278,-10 1278,-30 1298,-30 1298,-10 1278,-10"/>
<text text-anchor="start" x="1301.63" y="-15.4" font-family="Times-12" font-size="14.00"> &#160;Declarations</text>
<polygon fill="#8dd3c7" stroke="transparent" points="1391,-10 1391,-30 1411,-30 1411,-10 1391,-10"/>
<text text-anchor="start" x="1414.73" y="-15.4" font-family="Times-12" font-size="14.00"> &#160;Module</text>
<polygon fill="#80b1d3" stroke="transparent" points="1477,-10 1477,-30 1497,-30 1497,-10 1477,-10"/>
<text text-anchor="start" x="1500.78" y="-15.4" font-family="Times-12" font-size="14.00"> &#160;Bootstrap</text>
<polygon fill="#fdb462" stroke="transparent" points="1574,-10 1574,-30 1594,-30 1594,-10 1574,-10"/>
<text text-anchor="start" x="1597.67" y="-15.4" font-family="Times-12" font-size="14.00"> &#160;Providers</text>
<polygon fill="#fb8072" stroke="transparent" points="1670,-10 1670,-30 1690,-30 1690,-10 1670,-10"/>
<text text-anchor="start" x="1693.73" y="-15.4" font-family="Times-12" font-size="14.00"> &#160;Exports</text>
<g id="clust1" class="cluster">
<title>cluster_AppModule</title>
<polygon fill="none" stroke="black" stroke-dasharray="1,5" points="8,-70 8,-268 3016,-268 3016,-70 8,-70"/>
</g>
<g id="clust2" class="cluster">
<title>cluster_AppModule_declarations</title>
<polygon fill="none" stroke="black" points="293,-78 293,-130 3008,-130 3008,-78 293,-78"/>
</g>
<g id="clust18" class="cluster">
<title>cluster_AppModule_imports</title>
<polygon fill="none" stroke="black" points="16,-78 16,-130 285,-130 285,-78 16,-78"/>
</g>
<g id="clust19" class="cluster">
<title>cluster_AppModule_exports</title>
<polygon fill="none" stroke="black" points="1288,-208 1288,-260 1458,-260 1458,-208 1288,-208"/>
</g>
<g id="clust20" class="cluster">
<title>cluster_AppModule_bootstrap</title>
<polygon fill="none" stroke="black" points="1466,-208 1466,-260 1590,-260 1590,-208 1466,-208"/>
</g>
<!-- AppComponent -->
<g id="node1" class="node">
<title>AppComponent</title>
<polygon fill="#ffffb3" stroke="black" points="2999.94,-122 2894.06,-122 2894.06,-86 2999.94,-86 2999.94,-122"/>
<text text-anchor="middle" x="2947" y="-99.8" font-family="Times,serif" font-size="14.00">AppComponent</text>
</g>
<!-- AppModule -->
<g id="node16" class="node">
<title>AppModule</title>
<polygon fill="#8dd3c7" stroke="black" points="1491.66,-187 1488.66,-191 1467.66,-191 1464.66,-187 1408.34,-187 1408.34,-151 1491.66,-151 1491.66,-187"/>
<text text-anchor="middle" x="1450" y="-164.8" font-family="Times,serif" font-size="14.00">AppModule</text>
</g>
<!-- AppComponent&#45;&gt;AppModule -->
<g id="edge1" class="edge">
<title>AppComponent&#45;&gt;AppModule</title>
<path fill="none" stroke="black" d="M2947,-122.32C2947,-145.66 2947,-183 2947,-183 2947,-183 1501.99,-183 1501.99,-183"/>
<polygon fill="black" stroke="black" points="1502,-179.5 1491.99,-183 1501.99,-186.5 1502,-179.5"/>
</g>
<!-- DashboardDialogBodyComponent -->
<g id="node2" class="node">
<title>DashboardDialogBodyComponent</title>
<polygon fill="#ffffb3" stroke="black" points="2876.41,-122 2665.59,-122 2665.59,-86 2876.41,-86 2876.41,-122"/>
<text text-anchor="middle" x="2771" y="-99.8" font-family="Times,serif" font-size="14.00">DashboardDialogBodyComponent</text>
</g>
<!-- DashboardDialogBodyComponent&#45;&gt;AppModule -->
<g id="edge2" class="edge">
<title>DashboardDialogBodyComponent&#45;&gt;AppModule</title>
<path fill="none" stroke="black" d="M2771,-122.16C2771,-144.35 2771,-179 2771,-179 2771,-179 1501.72,-179 1501.72,-179"/>
<polygon fill="black" stroke="black" points="1501.72,-175.5 1491.72,-179 1501.72,-182.5 1501.72,-175.5"/>
</g>
<!-- DeleteCollabBodyComponent -->
<g id="node3" class="node">
<title>DeleteCollabBodyComponent</title>
<polygon fill="#ffffb3" stroke="black" points="2647.53,-122 2462.47,-122 2462.47,-86 2647.53,-86 2647.53,-122"/>
<text text-anchor="middle" x="2555" y="-99.8" font-family="Times,serif" font-size="14.00">DeleteCollabBodyComponent</text>
</g>
<!-- DeleteCollabBodyComponent&#45;&gt;AppModule -->
<g id="edge3" class="edge">
<title>DeleteCollabBodyComponent&#45;&gt;AppModule</title>
<path fill="none" stroke="black" d="M2555,-122.28C2555,-143.32 2555,-175 2555,-175 2555,-175 1501.97,-175 1501.97,-175"/>
<polygon fill="black" stroke="black" points="1501.97,-171.5 1491.97,-175 1501.97,-178.5 1501.97,-171.5"/>
</g>
<!-- DeletePopulationBodyComponent -->
<g id="node4" class="node">
<title>DeletePopulationBodyComponent</title>
<polygon fill="#ffffb3" stroke="black" points="2444.37,-122 2235.63,-122 2235.63,-86 2444.37,-86 2444.37,-122"/>
<text text-anchor="middle" x="2340" y="-99.8" font-family="Times,serif" font-size="14.00">DeletePopulationBodyComponent</text>
</g>
<!-- DeletePopulationBodyComponent&#45;&gt;AppModule -->
<g id="edge4" class="edge">
<title>DeletePopulationBodyComponent&#45;&gt;AppModule</title>
<path fill="none" stroke="black" d="M2340,-122.31C2340,-142.15 2340,-171 2340,-171 2340,-171 1501.73,-171 1501.73,-171"/>
<polygon fill="black" stroke="black" points="1501.73,-167.5 1491.73,-171 1501.73,-174.5 1501.73,-167.5"/>
</g>
<!-- DialogBodyComponent -->
<g id="node5" class="node">
<title>DialogBodyComponent</title>
<polygon fill="#ffffb3" stroke="black" points="2217.77,-122 2068.23,-122 2068.23,-86 2217.77,-86 2217.77,-122"/>
<text text-anchor="middle" x="2143" y="-99.8" font-family="Times,serif" font-size="14.00">DialogBodyComponent</text>
</g>
<!-- DialogBodyComponent&#45;&gt;AppModule -->
<g id="edge5" class="edge">
<title>DialogBodyComponent&#45;&gt;AppModule</title>
<path fill="none" stroke="black" d="M2143,-122.22C2143,-140.83 2143,-167 2143,-167 2143,-167 1501.79,-167 1501.79,-167"/>
<polygon fill="black" stroke="black" points="1501.79,-163.5 1491.79,-167 1501.79,-170.5 1501.79,-163.5"/>
</g>
<!-- GetpopulationNameBodyComponent -->
<g id="node6" class="node">
<title>GetpopulationNameBodyComponent</title>
<polygon fill="#ffffb3" stroke="black" points="2050.69,-122 1825.31,-122 1825.31,-86 2050.69,-86 2050.69,-122"/>
<text text-anchor="middle" x="1938" y="-99.8" font-family="Times,serif" font-size="14.00">GetpopulationNameBodyComponent</text>
</g>
<!-- GetpopulationNameBodyComponent&#45;&gt;AppModule -->
<g id="edge6" class="edge">
<title>GetpopulationNameBodyComponent&#45;&gt;AppModule</title>
<path fill="none" stroke="black" d="M1938,-122.02C1938,-139.37 1938,-163 1938,-163 1938,-163 1502.03,-163 1502.03,-163"/>
<polygon fill="black" stroke="black" points="1502.03,-159.5 1492.03,-163 1502.03,-166.5 1502.03,-159.5"/>
</g>
<!-- HeaderUserComponent -->
<g id="node7" class="node">
<title>HeaderUserComponent</title>
<polygon fill="#ffffb3" stroke="black" points="1807.17,-122 1658.83,-122 1658.83,-86 1807.17,-86 1807.17,-122"/>
<text text-anchor="middle" x="1733" y="-99.8" font-family="Times,serif" font-size="14.00">HeaderUserComponent</text>
</g>
<!-- HeaderUserComponent&#45;&gt;AppModule -->
<g id="edge7" class="edge">
<title>HeaderUserComponent&#45;&gt;AppModule</title>
<path fill="none" stroke="black" d="M1733,-122.01C1733,-138.05 1733,-159 1733,-159 1733,-159 1501.76,-159 1501.76,-159"/>
<polygon fill="black" stroke="black" points="1501.76,-155.5 1491.76,-159 1501.76,-162.5 1501.76,-155.5"/>
</g>
<!-- HomeComponent -->
<g id="node8" class="node">
<title>HomeComponent</title>
<polygon fill="#ffffb3" stroke="black" points="1640.55,-122 1525.45,-122 1525.45,-86 1640.55,-86 1640.55,-122"/>
<text text-anchor="middle" x="1583" y="-99.8" font-family="Times,serif" font-size="14.00">HomeComponent</text>
</g>
<!-- HomeComponent&#45;&gt;AppModule -->
<g id="edge8" class="edge">
<title>HomeComponent&#45;&gt;AppModule</title>
<path fill="none" stroke="black" d="M1553.85,-122.12C1553.85,-136.78 1553.85,-155 1553.85,-155 1553.85,-155 1501.94,-155 1501.94,-155"/>
<polygon fill="black" stroke="black" points="1501.94,-151.5 1491.94,-155 1501.94,-158.5 1501.94,-151.5"/>
</g>
<!-- LoginComponent -->
<g id="node9" class="node">
<title>LoginComponent</title>
<polygon fill="#ffffb3" stroke="black" points="1507.28,-122 1392.72,-122 1392.72,-86 1507.28,-86 1507.28,-122"/>
<text text-anchor="middle" x="1450" y="-99.8" font-family="Times,serif" font-size="14.00">LoginComponent</text>
</g>
<!-- LoginComponent&#45;&gt;AppModule -->
<g id="edge9" class="edge">
<title>LoginComponent&#45;&gt;AppModule</title>
<path fill="none" stroke="black" d="M1450,-122.11C1450,-122.11 1450,-140.99 1450,-140.99"/>
<polygon fill="black" stroke="black" points="1446.5,-140.99 1450,-150.99 1453.5,-140.99 1446.5,-140.99"/>
</g>
<!-- PopulationsComponent -->
<g id="node10" class="node">
<title>PopulationsComponent</title>
<polygon fill="#ffffb3" stroke="black" points="1374.95,-122 1227.05,-122 1227.05,-86 1374.95,-86 1374.95,-122"/>
<text text-anchor="middle" x="1301" y="-99.8" font-family="Times,serif" font-size="14.00">PopulationsComponent</text>
</g>
<!-- PopulationsComponent&#45;&gt;AppModule -->
<g id="edge10" class="edge">
<title>PopulationsComponent&#45;&gt;AppModule</title>
<path fill="none" stroke="black" d="M1335.54,-122.12C1335.54,-136.78 1335.54,-155 1335.54,-155 1335.54,-155 1398.03,-155 1398.03,-155"/>
<polygon fill="black" stroke="black" points="1398.03,-158.5 1408.03,-155 1398.03,-151.5 1398.03,-158.5"/>
</g>
<!-- ProfilAdminComponent -->
<g id="node11" class="node">
<title>ProfilAdminComponent</title>
<polygon fill="#ffffb3" stroke="black" points="1209.11,-122 1056.89,-122 1056.89,-86 1209.11,-86 1209.11,-122"/>
<text text-anchor="middle" x="1133" y="-99.8" font-family="Times,serif" font-size="14.00">ProfilAdminComponent</text>
</g>
<!-- ProfilAdminComponent&#45;&gt;AppModule -->
<g id="edge11" class="edge">
<title>ProfilAdminComponent&#45;&gt;AppModule</title>
<path fill="none" stroke="black" d="M1133,-122.01C1133,-138.05 1133,-159 1133,-159 1133,-159 1398.23,-159 1398.23,-159"/>
<polygon fill="black" stroke="black" points="1398.23,-162.5 1408.23,-159 1398.23,-155.5 1398.23,-162.5"/>
</g>
<!-- RegisterComponent -->
<g id="node12" class="node">
<title>RegisterComponent</title>
<polygon fill="#ffffb3" stroke="black" points="1038.98,-122 911.02,-122 911.02,-86 1038.98,-86 1038.98,-122"/>
<text text-anchor="middle" x="975" y="-99.8" font-family="Times,serif" font-size="14.00">RegisterComponent</text>
</g>
<!-- RegisterComponent&#45;&gt;AppModule -->
<g id="edge12" class="edge">
<title>RegisterComponent&#45;&gt;AppModule</title>
<path fill="none" stroke="black" d="M975,-122.02C975,-139.37 975,-163 975,-163 975,-163 1398.26,-163 1398.26,-163"/>
<polygon fill="black" stroke="black" points="1398.26,-166.5 1408.26,-163 1398.26,-159.5 1398.26,-166.5"/>
</g>
<!-- UpdateCollabBodyComponent -->
<g id="node13" class="node">
<title>UpdateCollabBodyComponent</title>
<polygon fill="#ffffb3" stroke="black" points="892.93,-122 703.07,-122 703.07,-86 892.93,-86 892.93,-122"/>
<text text-anchor="middle" x="798" y="-99.8" font-family="Times,serif" font-size="14.00">UpdateCollabBodyComponent</text>
</g>
<!-- UpdateCollabBodyComponent&#45;&gt;AppModule -->
<g id="edge13" class="edge">
<title>UpdateCollabBodyComponent&#45;&gt;AppModule</title>
<path fill="none" stroke="black" d="M798,-122.22C798,-140.83 798,-167 798,-167 798,-167 1398.22,-167 1398.22,-167"/>
<polygon fill="black" stroke="black" points="1398.22,-170.5 1408.22,-167 1398.22,-163.5 1398.22,-170.5"/>
</g>
<!-- UpdatePopulationBodyComponent -->
<g id="node14" class="node">
<title>UpdatePopulationBodyComponent</title>
<polygon fill="#ffffb3" stroke="black" points="685.26,-122 472.74,-122 472.74,-86 685.26,-86 685.26,-122"/>
<text text-anchor="middle" x="579" y="-99.8" font-family="Times,serif" font-size="14.00">UpdatePopulationBodyComponent</text>
</g>
<!-- UpdatePopulationBodyComponent&#45;&gt;AppModule -->
<g id="edge14" class="edge">
<title>UpdatePopulationBodyComponent&#45;&gt;AppModule</title>
<path fill="none" stroke="black" d="M579,-122.31C579,-142.15 579,-171 579,-171 579,-171 1398.28,-171 1398.28,-171"/>
<polygon fill="black" stroke="black" points="1398.28,-174.5 1408.28,-171 1398.28,-167.5 1398.28,-174.5"/>
</g>
<!-- UpdateProfilComponent -->
<g id="node15" class="node">
<title>UpdateProfilComponent</title>
<polygon fill="#ffffb3" stroke="black" points="454.64,-122 301.36,-122 301.36,-86 454.64,-86 454.64,-122"/>
<text text-anchor="middle" x="378" y="-99.8" font-family="Times,serif" font-size="14.00">UpdateProfilComponent</text>
</g>
<!-- UpdateProfilComponent&#45;&gt;AppModule -->
<g id="edge15" class="edge">
<title>UpdateProfilComponent&#45;&gt;AppModule</title>
<path fill="none" stroke="black" d="M378,-122.28C378,-143.32 378,-175 378,-175 378,-175 1398.31,-175 1398.31,-175"/>
<polygon fill="black" stroke="black" points="1398.31,-178.5 1408.31,-175 1398.31,-171.5 1398.31,-178.5"/>
</g>
<!-- DialogBodyComponent  -->
<g id="node19" class="node">
<title>DialogBodyComponent </title>
<polygon fill="#fb8072" stroke="black" points="1449.77,-252 1296.23,-252 1296.23,-216 1449.77,-216 1449.77,-252"/>
<text text-anchor="middle" x="1373" y="-229.8" font-family="Times,serif" font-size="14.00">DialogBodyComponent </text>
</g>
<!-- AppModule&#45;&gt;DialogBodyComponent  -->
<g id="edge18" class="edge">
<title>AppModule&#45;&gt;DialogBodyComponent </title>
<path fill="none" stroke="black" stroke-dasharray="5,2" d="M1428.9,-187.11C1428.9,-187.11 1428.9,-205.99 1428.9,-205.99"/>
<polygon fill="black" stroke="black" points="1425.4,-205.99 1428.9,-215.99 1432.4,-205.99 1425.4,-205.99"/>
</g>
<!-- AppComponent  -->
<g id="node20" class="node">
<title>AppComponent </title>
<polygon fill="#80b1d3" stroke="black" points="1582.44,-252 1473.56,-252 1473.56,-216 1582.44,-216 1582.44,-252"/>
<text text-anchor="middle" x="1528" y="-229.8" font-family="Times,serif" font-size="14.00">AppComponent </text>
</g>
<!-- AppModule&#45;&gt;AppComponent  -->
<g id="edge19" class="edge">
<title>AppModule&#45;&gt;AppComponent </title>
<path fill="none" stroke="black" stroke-dasharray="1,5" d="M1482.68,-187.11C1482.68,-187.11 1482.68,-205.99 1482.68,-205.99"/>
<polygon fill="black" stroke="black" points="1479.18,-205.99 1482.68,-215.99 1486.18,-205.99 1479.18,-205.99"/>
</g>
<!-- AppRoutingModule -->
<g id="node17" class="node">
<title>AppRoutingModule</title>
<polygon fill="#8dd3c7" stroke="black" points="277.27,-122 274.27,-126 253.27,-126 250.27,-122 148.73,-122 148.73,-86 277.27,-86 277.27,-122"/>
<text text-anchor="middle" x="213" y="-99.8" font-family="Times,serif" font-size="14.00">AppRoutingModule</text>
</g>
<!-- AppRoutingModule&#45;&gt;AppModule -->
<g id="edge16" class="edge">
<title>AppRoutingModule&#45;&gt;AppModule</title>
<path fill="none" stroke="black" d="M213,-122.16C213,-144.35 213,-179 213,-179 213,-179 1398.13,-179 1398.13,-179"/>
<polygon fill="black" stroke="black" points="1398.13,-182.5 1408.13,-179 1398.13,-175.5 1398.13,-182.5"/>
</g>
<!-- MaterialModule -->
<g id="node18" class="node">
<title>MaterialModule</title>
<polygon fill="#8dd3c7" stroke="black" points="130.47,-122 127.47,-126 106.47,-126 103.47,-122 23.53,-122 23.53,-86 130.47,-86 130.47,-122"/>
<text text-anchor="middle" x="77" y="-99.8" font-family="Times,serif" font-size="14.00">MaterialModule</text>
</g>
<!-- MaterialModule&#45;&gt;AppModule -->
<g id="edge17" class="edge">
<title>MaterialModule&#45;&gt;AppModule</title>
<path fill="none" stroke="black" d="M77,-122.32C77,-145.66 77,-183 77,-183 77,-183 1398.16,-183 1398.16,-183"/>
<polygon fill="black" stroke="black" points="1398.16,-186.5 1408.16,-183 1398.16,-179.5 1398.16,-186.5"/>
</g>
</g>
</svg>
